<svg width="320" height="134" viewBox="0 0 320 134" fill="none" xmlns="http://www.w3.org/2000/svg">
<rect width="320" height="134" fill="#FFA000" fill-opacity="0.07"/>
<g clip-path="url(#clip0_39_2)">
<path d="M177.292 52.7916V60.3912C177.292 60.3912 172.234 60.4166 172.208 60.3912V52.7916H164.583C164.583 52.7916 164.609 47.7337 164.583 47.7083H172.208V40.0833H177.292V47.7083H184.917V52.7916H177.292ZM169.667 62.9583V55.3333H162.042V47.7083H141.708C138.912 47.7083 136.625 49.9958 136.625 52.7916V83.2916C136.625 86.0875 138.912 88.375 141.708 88.375H172.208C175.004 88.375 177.292 86.0875 177.292 83.2916V62.9583H169.667ZM141.708 83.2916L149.333 73.125L154.417 80.75L162.042 70.5833L172.208 83.2916H141.708Z" fill="#FFA000" fill-opacity="0.28"/>
</g>
<defs>
<clipPath id="clip0_39_2">
<rect width="61" height="61" fill="white" transform="translate(129 35)"/>
</clipPath>
</defs>
</svg>
